<mxfile host="app.diagrams.net" modified="2024-04-07T00:15:41.603Z" agent="Mozilla/5.0 (X11; Linux x86_64) AppleWebKit/537.36 (KHTML, like Gecko) Chrome/123.0.0.0 Safari/537.36" version="24.0.4" etag="O7AbDt1WMrXj26gd25p9" type="github">
  <diagram name="Page-1" id="M_8vOZxVr4BjTv-DGj9w">
    <mxGraphModel>
      <root>
        <mxCell id="0" />
        <mxCell id="1" parent="0" />
      </root>
    </mxGraphModel>
  </diagram>
</mxfile>
